<?xml version="1.0" encoding="UTF-8" standalone="no"?>
<svg
   id="svg"
   viewBox="7.27 6.31 567.81446 75.234375"
   version="1.1"
   sodipodi:docname="mirai_logo_header.svg"
   width="567.81445"
   height="75.234375"
   inkscape:version="1.4 (86a8ad7, 2024-10-11)"
   xmlns:inkscape="http://www.inkscape.org/namespaces/inkscape"
   xmlns:sodipodi="http://sodipodi.sourceforge.net/DTD/sodipodi-0.dtd"
   xmlns="http://www.w3.org/2000/svg"
   xmlns:svg="http://www.w3.org/2000/svg">
  <defs
     id="defs1" />
  <sodipodi:namedview
     id="namedview1"
     pagecolor="#ffffff"
     bordercolor="#000000"
     borderopacity="0.25"
     inkscape:showpageshadow="2"
     inkscape:pageopacity="0.0"
     inkscape:pagecheckerboard="0"
     inkscape:deskcolor="#d1d1d1"
     inkscape:zoom="1.1262639"
     inkscape:cx="261.48401"
     inkscape:cy="142.50657"
     inkscape:window-width="2560"
     inkscape:window-height="1369"
     inkscape:window-x="1072"
     inkscape:window-y="479"
     inkscape:window-maximized="1"
     inkscape:current-layer="svg" />
  <path
     id="path0"
     d="m 548.69578,6.31 v 6.216797 h 6.17383 V 6.31 Z M 559.3032,6.9623437 V 33.655703 c 0,1.101311 0.27552,2.115549 0.82618,3.042969 0.57964,0.92742 1.33429,1.680128 2.26171,2.259765 0.92742,0.550656 1.95565,0.826172 3.08594,0.826172 h 9.60742 v -6.173828 h -9.3457 c -0.058,0 -0.11586,-0.02798 -0.17383,-0.08594 -0.058,-0.05796 -0.0879,-0.115864 -0.0879,-0.173828 v -12.60742 h 9.60742 v -6.173827 h -9.60742 V 6.9623437 Z M 407.12352,8.4838281 c -1.1303,0 -2.17446,0.2895033 -3.13086,0.8691406 -0.95641,0.5506555 -1.70911,1.3053173 -2.25977,2.2617183 -0.55065,0.92742 -0.82617,1.969632 -0.82617,3.128907 v 6.304687 c 0,1.130293 0.27552,2.172505 0.82617,3.128906 0.55066,0.956402 1.30336,1.725051 2.25977,2.304688 0.9564,0.550655 2.00056,0.826172 3.13086,0.826172 h 18.47461 c 0.058,0 0.11586,0.02797 0.17382,0.08594 0.058,0.02898 0.0879,0.0729 0.0879,0.130859 v 5.695313 c 0,0.08695 -0.0299,0.158833 -0.0879,0.216797 -0.058,0.02898 -0.11585,0.04297 -0.17382,0.04297 h -18.21485 c -0.058,0 -0.11586,-0.01399 -0.17383,-0.04297 -0.029,-0.05796 -0.043,-0.129851 -0.043,-0.216797 v -2.347656 h -6.25976 v 2.652343 c 0,1.159274 0.27552,2.217427 0.82617,3.173829 0.55066,0.92742 1.30336,1.680128 2.25977,2.259765 0.9564,0.550656 2.00056,0.826172 3.13086,0.826172 h 18.82226 c 1.13029,0 2.16047,-0.275516 3.08789,-0.826172 0.9564,-0.579637 1.7231,-1.332345 2.30274,-2.259765 0.57963,-0.956402 0.87109,-2.014555 0.87109,-3.173829 v -6.304687 c 0,-1.130293 -0.29146,-2.172504 -0.87109,-3.128906 -0.57964,-0.956402 -1.34634,-1.711063 -2.30274,-2.261719 -0.92742,-0.579637 -1.9576,-0.869141 -3.08789,-0.869141 h -18.5625 c -0.058,0 -0.11586,-0.01399 -0.17383,-0.04297 -0.029,-0.05796 -0.043,-0.115866 -0.043,-0.173829 v -5.695313 c 0,-0.08695 0.014,-0.144846 0.043,-0.173828 0.058,-0.05796 0.11587,-0.08594 0.17383,-0.08594 h 18.21485 c 0.058,0 0.11586,0.02797 0.17382,0.08594 0.058,0.02898 0.0879,0.08688 0.0879,0.173828 v 2.347657 h 6.34766 v -2.652344 c 0,-1.159275 -0.29146,-2.201487 -0.87109,-3.128906 -0.57964,-0.956402 -1.34634,-1.7110638 -2.30274,-2.2617193 -0.92742,-0.5796373 -1.9576,-0.8691406 -3.08789,-0.8691406 z m 29.6914,6.0859379 v 19.085937 c 0,1.101311 0.27552,2.115549 0.82617,3.042969 0.55066,0.92742 1.28938,1.680128 2.2168,2.259765 0.9564,0.550656 1.98463,0.826172 3.08594,0.826172 h 13.30273 c 1.1303,0 2.16047,-0.275516 3.08789,-0.826172 0.92742,-0.579637 1.66614,-1.332345 2.2168,-2.259765 0.55066,-0.92742 0.82617,-1.941658 0.82617,-3.042969 V 14.569766 h -6.17383 v 18.781249 c 0,0.05796 -0.028,0.115864 -0.0859,0.173828 -0.058,0.05796 -0.11587,0.08594 -0.17383,0.08594 h -12.69531 c -0.058,0 -0.11587,-0.02798 -0.17383,-0.08594 -0.058,-0.05796 -0.0859,-0.115864 -0.0859,-0.173828 V 14.569766 Z m 29.12891,0 v 25.214843 h 6.2168 v -18.78125 c 0,-0.05796 0.014,-0.115864 0.043,-0.173828 0.058,-0.05796 0.11587,-0.08594 0.17383,-0.08594 h 8.69531 c 0.058,0 0.11587,0.02797 0.17383,0.08594 0.058,0.05796 0.0859,0.115865 0.0859,0.173828 v 18.78125 h 6.2168 v -18.78125 c 0,-0.05796 0.014,-0.115864 0.043,-0.173828 0.058,-0.05796 0.1318,-0.08594 0.21875,-0.08594 h 8.65039 c 0.0869,0 0.14484,0.02797 0.17382,0.08594 0.058,0.05796 0.0859,0.115865 0.0859,0.173828 v 18.78125 H 502.895 V 20.700625 c 0,-1.101311 -0.27552,-2.115549 -0.82617,-3.042969 -0.55066,-0.92742 -1.28938,-1.668094 -2.2168,-2.21875 -0.92742,-0.579637 -1.97158,-0.86914 -3.13086,-0.86914 z m 40.32226,0 v 25.214843 h 6.2168 v -18.78125 c 0,-0.05796 0.014,-0.115864 0.043,-0.173828 0.058,-0.05796 0.11586,-0.08594 0.17383,-0.08594 h 8.69531 c 0.058,0 0.11586,0.02797 0.17383,0.08594 0.058,0.05796 0.0859,0.115865 0.0859,0.173828 v 18.78125 h 6.21679 v -18.78125 c 0,-0.05796 0.0159,-0.115864 0.0449,-0.173828 0.058,-0.05796 0.12986,-0.08594 0.2168,-0.08594 h 8.65039 c 0.087,0 0.14485,0.02797 0.17383,0.08594 0.058,0.05796 0.0879,0.115865 0.0879,0.173828 v 18.78125 h 6.17188 V 20.700625 c 0,-1.101311 -0.27552,-2.115549 -0.82618,-3.042969 -0.55065,-0.92742 -1.28937,-1.668094 -2.21679,-2.21875 -0.92742,-0.579637 -1.96963,-0.86914 -3.12891,-0.86914 z m 42.42969,0 v 25.214843 h 6.17383 V 14.569766 Z M 307.0825,15.608828 c -0.94155,0.04135 -1.8733,0.165281 -2.7793,0.378906 -3.744,0.882 -10.65625,6.252297 -10.65625,8.279297 0,0.13 -1.43068,2.109484 -3.17968,4.396484 -3.843,5.029 -19.50947,26.066203 -23.85547,32.033203 -4.338,5.955 -4.49519,9.713469 -0.49219,11.730469 4.429,2.231 6.11409,1.076922 13.99609,-9.580078 21.903,-29.612 25.71417,-34.287109 27.95118,-34.287109 3.23899,0 3.06998,-0.202844 28.83398,34.660156 8.12,10.989 10.80405,12.406422 15.12305,7.982422 2.685,-2.749 2.25354,-4.861516 -2.18946,-10.728516 -1.543,-2.038 -2.80468,-3.791437 -2.80468,-3.898437 0,-0.215 -15.60152,-21.006985 -20.60352,-27.458985 -1.739,-2.243 -3.26553,-4.328765 -3.39453,-4.634765 -2.275,-5.403125 -9.35839,-9.162535 -15.94922,-8.873047 z m -111.01172,2.476563 c -20.25662,-0.01688 -40.36222,0.218156 -41.38672,0.722656 -3.077,1.516 -4.17203,5.93625 -2.20703,8.90625 1.914,2.891 -1.1353,2.699218 42.7207,2.699218 42.141,0 40.56894,-0.07056 42.33594,1.898438 1.665,1.855 1.42633,4.123515 -0.63867,6.103515 l -1.12891,1.080079 -36.41796,0.185546 -36.41797,0.185547 -2.82422,1.396485 c -6.984,3.452 -8.982,8.283156 -8.75,21.160156 l 0.12109,6.789062 1.07227,1.404297 c 2.464,3.229 6.14861,3.529188 9.09961,0.742188 l 1.6914,-1.597656 0.18555,-7.595704 c 0.271,-11.125 -0.49297,-10.625281 16.20703,-10.613281 25.954,0.018 33.70038,2.202969 52.48438,14.792969 2.609,1.748 5.03939,3.344828 5.40039,3.548828 0.36,0.204 1.60839,1.028031 2.77539,1.832031 4.618,3.18 10.29178,0.536641 9.80078,-4.568359 -0.232,-2.419 -1.19917,-3.573953 -5.95117,-7.126953 -2.231,-1.667 -4.43539,-3.3835 -4.90039,-3.8125 -0.464,-0.43 -2.02861,-1.532219 -3.47461,-2.449219 -3.223,-2.046 -3.22608,-2.076359 -0.20508,-2.318359 17.502,-1.405 19.64917,-27.298266 2.70117,-32.572266 -1.629,-0.507 -22.03634,-0.776093 -42.29297,-0.792968 z M 12.895,18.116641 c -0.798594,0.03719 -1.579469,0.278156 -2.417969,0.691406 -0.684,0.337 -1.684609,1.281656 -2.224609,2.097656 L 7.27,22.388125 V 45.800234 69.21039 l 1.072266,1.40625 c 2.464,3.23 6.146656,3.530188 9.097656,0.742188 l 1.693359,-1.59961 0.103516,-16.152343 c 0.057,-8.883 0.168094,-16.150391 0.246094,-16.150391 0.077,0 1.606437,1.093688 3.398437,2.429688 23.684,17.657 50.961672,17.731125 75.138672,0.203125 1.997,-1.448 3.70778,-2.632813 3.80078,-2.632813 0.092,0 0.16797,7.112688 0.16797,15.804688 0,15.287 0.0238,15.845156 0.75977,17.035156 2.372,3.838 7.97361,3.830328 10.34961,-0.01367 0.759,-1.228 0.76696,-1.525469 0.66796,-24.980469 l -0.10156,-23.738281 -1.11133,-1.169922 c -3.755,-3.948 -7.31572,-2.827453 -14.88672,4.685547 -1.719,1.705 -8.725386,6.894469 -10.775386,7.980469 -0.975,0.516 -3.021782,1.622937 -4.550781,2.460937 -11.667001,6.388 -30.327,6.325516 -43.375,-0.146484 -6.438001,-3.194 -11.642547,-6.744953 -16.310547,-11.126953 -4.803,-4.50825 -7.363985,-6.242422 -9.759766,-6.130859 z m 120.05664,0.05664 c -1.12244,-0.03856 -2.28341,0.265265 -3.39453,0.93164 -2.849,1.708001 -2.73242,0.56486 -2.73242,26.75586 v 23.304687 l 0.9375,1.38086 c 2.468,3.633 7.84801,3.5 10.16601,-0.25 0.745,-1.206 0.75977,-1.687078 0.75977,-24.580078 V 22.368593 l -0.84375,-1.251953 c -1.25688,-1.864999 -3.02184,-2.879091 -4.89258,-2.943358 z m 236.39844,0.002 c -0.81974,0.08309 -1.61174,0.345343 -2.30274,0.808593 -0.714,0.479001 -1.67186,1.613485 -2.13086,2.521485 l -0.83398,1.652344 V 45.66742 c 0,24.024 -0.0189,23.760671 1.91211,25.763671 2.921,3.028 8.16545,1.974297 9.81445,-1.970703 0.896,-2.145 0.71478,-45.783922 -0.19922,-47.794922 -1.07925,-2.37675 -3.80056,-3.739516 -6.25976,-3.490234 z m 37.85937,32.068359 c -1.13029,0 -2.15851,0.275516 -3.08593,0.826172 -0.92742,0.550655 -1.68209,1.289378 -2.26172,2.216797 -0.55066,0.92742 -0.82422,1.957598 -0.82422,3.087891 v 2.65039 h 6.17187 v -2.345703 c 0,-0.05796 0.0299,-0.115864 0.0879,-0.173828 0.058,-0.05796 0.11587,-0.08789 0.17383,-0.08789 h 17.99805 c 0.058,0 0.11586,0.02993 0.17383,0.08789 0.058,0.05796 0.0859,0.115864 0.0859,0.173828 v 6.388672 c 0,0.05796 -0.028,0.117817 -0.0859,0.175781 -0.058,0.05796 -0.11587,0.08594 -0.17383,0.08594 h -18.25977 c -1.13029,0 -2.15851,0.275517 -3.08593,0.826172 -0.92742,0.550655 -1.68209,1.289377 -2.26172,2.216797 -0.55066,0.92742 -0.82422,1.955645 -0.82422,3.085937 v 12.085938 h 30.86523 V 75.3725 h -24.43164 c -0.058,0 -0.11586,-0.02993 -0.17383,-0.08789 -0.058,-0.05796 -0.0879,-0.115864 -0.0879,-0.173828 v -5.304689 c 0,-0.05796 0.0299,-0.115865 0.0879,-0.173828 0.058,-0.05796 0.11587,-0.08594 0.17383,-0.08594 h 18.25781 c 1.10132,0 2.11555,-0.275516 3.04297,-0.826172 0.9564,-0.579637 1.71107,-1.332347 2.26172,-2.259766 0.57964,-0.92742 0.86914,-1.957597 0.86914,-3.08789 v -6.998044 c 0,-1.130293 -0.2895,-2.160471 -0.86914,-3.087891 -0.55065,-0.927419 -1.30532,-1.666142 -2.26172,-2.216797 -0.92742,-0.550656 -1.94165,-0.826172 -3.04297,-0.826172 z m 36.08203,0 c -1.13029,0 -2.15851,0.291457 -3.08593,0.871094 -0.92742,0.579638 -1.68013,1.346333 -2.25977,2.302735 -0.55065,0.956401 -0.82617,2.000566 -0.82617,3.130859 v 18.474609 c 0,1.10131 0.27552,2.159462 0.82617,3.173828 0.57964,0.985383 1.33235,1.797945 2.25977,2.435547 0.92742,0.608619 1.95564,0.91211 3.08593,0.91211 h 18.51954 c 1.13029,0 2.16047,-0.303491 3.08789,-0.91211 0.92742,-0.637602 1.66614,-1.450164 2.21679,-2.435547 0.57964,-1.014366 0.86914,-2.072518 0.86914,-3.173828 V 56.548281 c 0,-1.130293 -0.2895,-2.174458 -0.86914,-3.130859 -0.55065,-0.956402 -1.28937,-1.723097 -2.21679,-2.302735 -0.92742,-0.579637 -1.9576,-0.871094 -3.08789,-0.871094 z m 36.25782,0 c -1.1303,0 -2.16047,0.275516 -3.08789,0.826172 -0.92742,0.550655 -1.68013,1.289378 -2.25977,2.216797 -0.55065,0.92742 -0.82617,1.957598 -0.82617,3.087891 v 2.65039 h 6.17383 v -2.345703 c 0,-0.05796 0.028,-0.115864 0.0859,-0.173828 0.058,-0.05796 0.11587,-0.08789 0.17383,-0.08789 h 17.99805 c 0.058,0 0.11586,0.02993 0.17383,0.08789 0.058,0.05796 0.0879,0.115864 0.0879,0.173828 v 6.388672 c 0,0.05796 -0.0299,0.117817 -0.0879,0.175781 -0.058,0.05796 -0.11587,0.08594 -0.17383,0.08594 H 479.5493 c -1.1303,0 -2.16047,0.275517 -3.08789,0.826172 -0.92742,0.550655 -1.68013,1.289377 -2.25977,2.216797 -0.55065,0.92742 -0.82617,1.955645 -0.82617,3.085937 V 81.544375 H 504.2407 V 75.3725 h -24.43164 c -0.058,0 -0.11586,-0.02993 -0.17383,-0.08789 -0.058,-0.05796 -0.0859,-0.115864 -0.0859,-0.173828 v -5.304689 c 0,-0.05796 0.028,-0.115865 0.0859,-0.173828 0.058,-0.05796 0.11587,-0.08594 0.17383,-0.08594 h 18.25977 c 1.10131,0 2.11555,-0.275516 3.04297,-0.826172 0.9564,-0.579637 1.70911,-1.332347 2.25976,-2.259766 0.57964,-0.92742 0.86914,-1.957597 0.86914,-3.08789 v -6.998044 c 0,-1.130293 -0.2895,-2.160471 -0.86914,-3.087891 -0.55065,-0.927419 -1.30336,-1.666142 -2.25976,-2.216797 -0.92742,-0.550656 -1.94166,-0.826172 -3.04297,-0.826172 z m 29.9082,0 v 18.519532 h 24.43164 c 0.058,0 0.11587,0.02993 0.17383,0.08789 0.058,0.02898 0.0879,0.08688 0.0879,0.173828 v 6.085938 c 0,0.05796 -0.0299,0.115865 -0.0879,0.173828 -0.058,0.05796 -0.11587,0.08789 -0.17383,0.08789 h -17.99805 c -0.058,0 -0.11586,-0.02993 -0.17382,-0.08789 -0.058,-0.05796 -0.0859,-0.115864 -0.0859,-0.173828 v -1.957031 h -6.17383 v 2.261718 c 0,1.101311 0.27552,2.11555 0.82617,3.042969 0.57964,0.92742 1.3343,1.680129 2.26172,2.259766 0.92742,0.550655 1.95565,0.826172 3.08594,0.826172 h 18.51953 c 1.10131,0 2.11555,-0.275517 3.04297,-0.826172 0.9564,-0.579637 1.70911,-1.332346 2.25976,-2.259766 0.57964,-0.927419 0.86914,-1.941658 0.86914,-3.042969 v -6.738281 c 0,-1.130292 -0.2895,-2.16047 -0.86914,-3.08789 -0.55065,-0.956402 -1.30336,-1.70911 -2.25976,-2.259766 -0.92742,-0.550655 -1.94166,-0.826172 -3.04297,-0.826172 h -18.25977 c -0.058,0 -0.11586,-0.01399 -0.17382,-0.04297 -0.058,-0.05796 -0.0859,-0.115864 -0.0859,-0.173828 v -5.607422 c 0,-0.05796 0.028,-0.115864 0.0859,-0.173828 0.058,-0.05796 0.11586,-0.08789 0.17382,-0.08789 h 24.43164 v -6.173826 z m -201.36719,1.638672 c -1.12995,0.03705 -2.27447,0.325485 -3.35547,0.896485 -4.878,2.575 -5.5307,9.611062 -1.2207,13.164062 5.96,4.912 14.43414,-0.984531 12.24414,-8.519531 -1.02075,-3.50925 -4.27811,-5.652156 -7.66797,-5.541016 z m 135.46289,4.708985 h 15.12891 L 443.29148,69.458437 V 56.852968 c 0,-0.08695 0.0299,-0.144847 0.0879,-0.173828 0.058,-0.05796 0.11586,-0.08789 0.17382,-0.08789 z m -382.753903,3.17383 c -0.867918,9.96e-4 -1.773313,0.151719 -2.695313,0.480469 -4.629,1.65 -6.535703,7.184109 -3.845703,11.162109 2.96,4.377 8.920063,4.743625 12.414063,0.765625 4.459,-5.0785 0.202379,-12.415176 -5.873047,-12.408203 z m 401.011723,2.347656 v 12.607422 c 0,0.08695 -0.028,0.158833 -0.0859,0.216797 -0.058,0.02898 -0.11587,0.04297 -0.17383,0.04297 h -15.12891 z"
     style="fill:#ffffff" />
</svg>
