<svg xmlns="http://www.w3.org/2000/svg" xmlns:xlink="http://www.w3.org/1999/xlink" id="svg" viewBox="7.27 6.31 378.27 89.68"><g id="svgg"><path id="path0" d="M309.081 6.705 C 305.337 7.587,298.424 12.958,298.424 14.985 C 298.424 15.115,296.994 17.093,295.245 19.380 C 291.402 24.409,275.735 45.447,271.389 51.414 C 267.051 57.369,266.894 61.127,270.897 63.144 C 275.326 65.375,277.011 64.222,284.893 53.565 C 306.796 23.953,310.608 19.277,312.845 19.277 C 316.084 19.277,315.915 19.075,341.679 53.938 C 349.799 64.927,352.483 66.343,356.802 61.919 C 359.487 59.170,359.056 57.059,354.613 51.192 C 353.070 49.154,351.807 47.399,351.807 47.292 C 351.807 47.077,336.207 26.285,331.205 19.833 C 329.466 17.590,327.938 15.505,327.809 15.199 C 325.209 9.024,316.329 4.996,309.081 6.705 M15.255 9.526 C 14.571 9.863,13.570 10.806,13.030 11.622 L 12.048 13.106 12.048 36.517 L 12.048 59.928 13.120 61.333 C 15.584 64.563,19.267 64.864,22.218 62.076 L 23.911 60.477 24.015 44.325 C 24.072 35.442,24.182 28.174,24.260 28.174 C 24.337 28.174,25.867 29.268,27.659 30.604 C 51.343 48.261,78.621 48.335,102.798 30.807 C 104.795 29.359,106.505 28.174,106.598 28.174 C 106.690 28.174,106.766 35.286,106.766 43.978 C 106.766 59.265,106.790 59.823,107.526 61.013 C 109.898 64.851,115.500 64.844,117.876 61.000 C 118.635 59.772,118.643 59.474,118.544 36.019 L 118.443 12.282 117.331 11.112 C 113.576 7.164,110.016 8.284,102.445 15.797 C 100.726 17.502,93.720 22.692,91.670 23.778 C 90.695 24.294,88.647 25.401,87.118 26.239 C 75.451 32.627,56.792 32.563,43.744 26.091 C 37.306 22.897,32.101 19.347,27.433 14.965 C 21.029 8.954,18.609 7.873,15.255 9.526 M134.336 9.822 C 131.487 11.530,131.603 10.387,131.603 36.578 L 131.603 59.883 132.541 61.263 C 135.009 64.896,140.388 64.763,142.706 61.013 C 143.451 59.807,143.466 59.327,143.466 36.434 L 143.466 13.085 142.623 11.834 C 140.612 8.850,137.299 8.045,134.336 9.822 M159.462 9.526 C 156.385 11.042,155.290 15.462,157.255 18.432 C 159.169 21.323,156.119 21.131,199.975 21.131 C 242.116 21.131,240.544 21.060,242.311 23.029 C 243.976 24.884,243.738 27.153,241.673 29.133 L 240.545 30.213 204.127 30.399 L 167.709 30.584 164.884 31.980 C 157.900 35.432,155.902 40.263,156.134 53.140 L 156.256 59.930 157.328 61.334 C 159.792 64.563,163.475 64.863,166.426 62.076 L 168.119 60.478 168.304 52.882 C 168.575 41.757,167.811 42.258,184.511 42.270 C 210.465 42.288,218.212 44.472,236.996 57.062 C 239.605 58.810,242.034 60.408,242.395 60.612 C 242.755 60.816,244.005 61.640,245.172 62.444 C 249.790 65.624,255.462 62.980,254.971 57.875 C 254.739 55.456,253.773 54.300,249.021 50.747 C 246.790 49.080,244.585 47.364,244.120 46.935 C 243.656 46.505,242.092 45.403,240.646 44.486 C 237.423 42.440,237.420 42.409,240.441 42.167 C 257.943 40.762,260.090 14.870,243.142 9.596 C 239.884 8.582,161.511 8.517,159.462 9.526 M371.826 9.701 C 371.112 10.180,370.153 11.314,369.694 12.222 L 368.860 13.874 368.860 36.384 C 368.860 60.408,368.841 60.146,370.772 62.149 C 373.693 65.177,378.939 64.123,380.588 60.178 C 381.484 58.033,381.301 14.393,380.387 12.382 C 378.948 9.213,374.590 7.848,371.826 9.701 M309.512 43.495 C 304.634 46.070,303.983 53.107,308.293 56.660 C 314.253 61.572,322.727 55.676,320.537 48.141 C 319.176 43.462,313.836 41.211,309.512 43.495 M62.882 50.962 C 58.253 52.612,56.346 58.146,59.036 62.124 C 61.996 66.501,67.957 66.868,71.451 62.890 C 76.547 57.086,70.258 48.332,62.882 50.962 M8.156 80.074 C 5.931 82.299,7.726 83.040,15.348 83.040 L 21.800 83.040 21.280 84.767 C 20.528 87.265,20.571 94.290,21.343 95.062 C 23.352 97.071,24.467 95.365,24.467 90.281 C 24.467 82.541,22.956 83.040,46.388 83.040 C 66.628 83.040,66.728 83.031,66.728 81.186 C 66.728 79.305,67.169 79.333,37.096 79.333 C 9.391 79.333,8.884 79.346,8.156 80.074 M76.039 79.601 C 72.548 80.261,70.037 85.928,71.331 90.227 C 72.901 95.444,73.543 95.644,88.700 95.644 C 101.964 95.644,101.946 95.647,101.946 93.729 C 101.946 92.020,101.342 91.937,88.977 91.937 C 76.461 91.937,75.840 91.847,74.956 89.908 C 74.176 88.196,74.396 85.442,75.408 84.265 L 76.302 83.225 88.661 83.040 C 95.458 82.938,101.228 82.720,101.483 82.555 C 102.221 82.077,102.049 80.155,101.229 79.716 C 100.526 79.340,77.964 79.237,76.039 79.601 M106.638 80.011 C 105.911 80.814,105.713 93.629,106.408 94.927 C 107.714 97.368,109.731 95.342,109.731 91.591 L 109.731 88.971 121.038 88.971 L 132.345 88.971 132.345 91.484 C 132.345 94.984,133.970 96.836,135.607 95.199 C 136.347 94.459,136.223 80.669,135.469 79.915 C 133.835 78.281,132.345 79.899,132.345 83.308 L 132.345 85.635 121.038 85.635 L 109.731 85.635 109.731 83.097 C 109.731 79.712,108.247 78.232,106.638 80.011 M142.116 79.683 C 140.320 80.447,140.130 81.267,140.130 88.238 C 140.130 95.119,140.252 95.644,141.851 95.644 C 143.481 95.644,143.837 94.436,143.837 88.911 C 143.837 85.819,143.987 83.732,144.219 83.589 C 144.666 83.313,148.269 85.270,150.131 86.800 C 150.840 87.382,151.608 87.859,151.837 87.859 C 152.066 87.859,155.155 89.611,158.701 91.752 C 165.968 96.140,166.871 96.393,168.703 94.560 L 169.787 93.477 169.787 86.987 C 169.787 80.099,169.601 79.333,167.928 79.333 C 166.454 79.333,166.080 80.665,166.080 85.914 C 166.080 91.833,166.021 91.896,162.463 89.816 C 161.088 89.013,159.212 87.975,158.295 87.511 C 157.377 87.046,156.543 86.539,156.441 86.385 C 156.187 86.000,152.097 83.411,151.743 83.411 C 151.587 83.411,150.083 82.567,148.401 81.536 C 145.259 79.609,143.506 79.092,142.116 79.683 M178.499 79.852 C 173.098 82.232,172.290 90.766,177.117 94.450 L 178.439 95.459 188.844 95.568 C 200.475 95.691,201.154 95.576,202.978 93.185 C 206.411 88.685,205.039 81.815,200.312 79.841 C 198.601 79.126,180.125 79.135,178.499 79.852 M209.731 79.733 C 209.156 80.068,209.082 80.785,209.082 86.042 C 209.082 96.037,208.414 95.641,225.293 95.643 L 237.981 95.644 238.572 94.742 C 239.100 93.936,238.979 92.949,238.263 92.227 C 238.219 92.183,232.512 92.058,225.579 91.949 L 212.975 91.752 212.790 86.067 C 212.577 79.544,212.023 78.398,209.731 79.733 M247.429 80.033 C 241.592 82.684,241.688 92.809,247.573 95.247 C 249.632 96.100,269.243 95.617,270.502 94.682 C 275.462 91.001,275.117 82.806,269.891 80.167 C 267.568 78.993,249.949 78.888,247.429 80.033 M283.268 79.601 C 277.777 80.639,276.515 91.069,281.454 94.592 C 282.919 95.637,305.064 96.151,306.915 95.183 C 309.864 93.642,310.322 89.446,307.799 87.092 L 306.238 85.635 297.689 85.635 L 289.141 85.635 288.705 86.590 C 287.772 88.639,288.222 88.767,297.056 88.971 C 305.612 89.169,306.119 89.287,305.693 90.983 L 305.454 91.937 294.901 91.937 L 284.349 91.937 283.183 90.895 C 281.019 88.962,281.416 84.310,283.823 83.395 C 284.346 83.196,289.887 83.040,296.410 83.040 C 307.569 83.040,308.094 83.008,308.804 82.298 C 309.697 81.406,309.711 81.217,308.969 80.157 L 308.392 79.333 296.272 79.383 C 289.606 79.411,283.754 79.509,283.268 79.601 M313.867 80.011 C 312.973 80.998,312.946 94.172,313.836 95.062 C 316.175 97.401,316.960 95.472,316.960 87.385 C 316.960 79.527,316.119 77.522,313.867 80.011 M321.687 79.733 C 320.788 80.257,320.832 82.162,321.755 82.656 C 323.200 83.429,350.474 83.157,351.194 82.362 C 351.991 81.481,351.971 80.708,351.129 79.946 C 350.322 79.216,322.916 79.017,321.687 79.733 M357.024 79.982 C 353.455 81.802,353.138 86.765,356.488 88.363 C 357.585 88.886,359.363 88.971,369.172 88.971 C 381.479 88.971,382.031 89.053,381.778 90.846 L 381.650 91.752 353.205 91.847 L 324.760 91.942 324.527 91.013 C 324.000 88.910,323.610 88.971,337.510 88.971 C 351.761 88.971,352.083 88.911,350.528 86.537 L 349.937 85.635 336.074 85.635 C 319.467 85.635,321.038 85.239,321.038 89.425 L 321.038 92.766 322.477 94.205 L 323.916 95.644 352.925 95.644 C 385.520 95.644,383.562 95.812,384.947 92.895 C 386.038 90.594,385.654 88.953,383.549 86.932 L 382.391 85.820 370.548 85.712 C 358.459 85.603,357.739 85.514,357.739 84.146 C 357.739 83.088,358.324 83.040,371.057 83.040 C 382.353 83.040,383.246 82.992,383.817 82.362 C 384.614 81.481,384.593 80.708,383.752 79.946 C 382.697 78.991,358.905 79.023,357.024 79.982 M200.203 84.004 C 202.049 85.852,201.627 90.398,199.503 91.535 C 197.945 92.369,180.051 92.059,178.932 91.179 C 176.716 89.435,177.005 84.338,179.370 83.449 C 181.497 82.650,199.324 83.125,200.203 84.004 M268.540 83.395 C 270.947 84.310,271.344 88.962,269.180 90.895 L 268.014 91.937 258.530 91.937 L 249.045 91.937 247.785 90.677 C 245.781 88.672,246.117 84.664,248.385 83.516 C 249.507 82.948,267.088 82.843,268.540 83.395 M36.343 86.352 C 35.782 87.399,35.874 91.387,36.493 92.868 C 37.636 95.603,37.858 95.641,52.660 95.643 C 66.796 95.644,66.728 95.653,66.728 93.738 C 66.728 92.154,66.565 92.133,52.827 91.937 L 39.852 91.752 39.737 90.366 L 39.622 88.981 52.486 88.883 C 66.665 88.776,66.691 88.772,65.697 86.590 L 65.261 85.635 50.994 85.635 C 37.268 85.635,36.712 85.662,36.343 86.352 " stroke="none" fill="#ffffff" fill-rule="evenodd"/></g></svg>